<svg xmlns="http://www.w3.org/2000/svg" xmlnsXlink="http://www.w3.org/1999/xlink" version="1.1" x="0px" y="0px" viewBox="0 0 100 100" width="48" height="48" enable-background="new 0 0 100 100" xmlSpace="preserve">
	<path d="M50,5C25.1474609,5,5,25.1469727,5,50c0,24.8525391,20.1474609,45,45,45s45-20.1474609,45-45  C95,25.1469727,74.8525391,5,50,5z M50,86c-19.8505859,0-36-16.1499023-36-36c0-19.8505859,16.1494141-36,36-36s36,16.1494141,36,36  C86,69.8500977,69.8505859,86,50,86z"></path>
	<polygon points="44.1816406,55.8183594 31.9990234,43.6357422 25.6367188,50 44.1826172,68.5454102 74.3642578,38.3642578 68,32 "></polygon>
</svg>