<svg xmlns="http://www.w3.org/2000/svg" data-name="Layer 1" viewBox="0 0 100 100" x="0px" y="0px"><title>Artboard 4</title><path d="M24.43,97.17H75.57a8.85,8.85,0,0,0,8.85-8.85V32.08a8.85,8.85,0,0,0-3.33-6.92L55.52,4.76a8.85,8.85,0,0,0-11,0L18.91,25.16a8.85,8.85,0,0,0-3.33,6.92V88.32A8.85,8.85,0,0,0,24.43,97.17ZM72.64,71.35c0,5.61-4,10.17-8.81,10.17S55,77,55,71.35s4-10.17,8.81-10.17S72.64,65.75,72.64,71.35ZM60.55,45a2.66,2.66,0,0,1,1,3.62l-18.5,33a2.66,2.66,0,1,1-4.65-2.6l18.5-33A2.66,2.66,0,0,1,60.55,45ZM50,19.52a6.57,6.57,0,1,1-6.57,6.57A6.57,6.57,0,0,1,50,19.52ZM36.17,46.16C41,46.16,45,50.73,45,56.34s-4,10.17-8.81,10.17-8.81-4.56-8.81-10.17S31.31,46.16,36.17,46.16ZM32.69,56.34c0-2.63,1.59-4.85,3.48-4.85s3.48,2.22,3.48,4.85-1.59,4.85-3.48,4.85S32.69,59,32.69,56.34Zm27.66,15c0-2.63,1.59-4.85,3.48-4.85s3.48,2.22,3.48,4.85-1.59,4.85-3.48,4.85S60.35,74,60.35,71.35Z"></path></svg>