<svg xmlns="http://www.w3.org/2000/svg" viewBox="0 0 24 24" fill="none" x="0px" y="0px"><path d="M12 1C9.82441 1 7.69767 1.64514 5.88873 2.85383C4.07979 4.06253 2.66989 5.78049 1.83733 7.79048C1.00477 9.80047 0.786929 12.0122 1.21137 14.146C1.6358 16.2798 2.68345 18.2398 4.22183 19.7782C5.76021 21.3166 7.72022 22.3642 9.85401 22.7886C11.9878 23.2131 14.1995 22.9952 16.2095 22.1627C18.2195 21.3301 19.9375 19.9202 21.1462 18.1113C22.3549 16.3023 23 14.1756 23 12C22.9966 9.08367 21.8365 6.28778 19.7744 4.22563C17.7122 2.16347 14.9163 1.00344 12 1ZM12 21C10.22 21 8.47992 20.4722 6.99987 19.4832C5.51983 18.4943 4.36628 17.0887 3.68509 15.4442C3.0039 13.7996 2.82567 11.99 3.17294 10.2442C3.5202 8.49836 4.37737 6.89471 5.63604 5.63604C6.89472 4.37737 8.49836 3.5202 10.2442 3.17293C11.99 2.82567 13.7996 3.0039 15.4442 3.68508C17.0887 4.36627 18.4943 5.51983 19.4832 6.99987C20.4722 8.47991 21 10.22 21 12C20.9974 14.3861 20.0483 16.6738 18.361 18.361C16.6738 20.0483 14.3861 20.9974 12 21ZM16.707 8.707L8.707 16.707C8.61476 16.8025 8.50441 16.8787 8.38241 16.9311C8.26041 16.9835 8.12919 17.0111 7.99641 17.0123C7.86363 17.0134 7.73195 16.9881 7.60905 16.9378C7.48615 16.8875 7.3745 16.8133 7.28061 16.7194C7.18672 16.6255 7.11246 16.5138 7.06218 16.391C7.0119 16.2681 6.9866 16.1364 6.98775 16.0036C6.98891 15.8708 7.01649 15.7396 7.0689 15.6176C7.12131 15.4956 7.19749 15.3852 7.293 15.293L15.293 7.293C15.3853 7.19749 15.4956 7.12131 15.6176 7.0689C15.7396 7.01649 15.8708 6.9889 16.0036 6.98775C16.1364 6.9866 16.2681 7.0119 16.391 7.06218C16.5139 7.11246 16.6255 7.18671 16.7194 7.2806C16.8133 7.3745 16.8875 7.48615 16.9378 7.60905C16.9881 7.73194 17.0134 7.86362 17.0123 7.9964C17.0111 8.12918 16.9835 8.2604 16.9311 8.3824C16.8787 8.50441 16.8025 8.61475 16.707 8.707ZM6.5 8.5C6.5 8.10444 6.6173 7.71776 6.83707 7.38886C7.05683 7.05996 7.36919 6.80362 7.73464 6.65224C8.10009 6.50087 8.50222 6.46126 8.89019 6.53843C9.27815 6.6156 9.63451 6.80608 9.91422 7.08579C10.1939 7.36549 10.3844 7.72186 10.4616 8.10982C10.5387 8.49778 10.4991 8.89991 10.3478 9.26537C10.1964 9.63082 9.94004 9.94318 9.61115 10.1629C9.28225 10.3827 8.89557 10.5 8.5 10.5C7.96957 10.5 7.46086 10.2893 7.08579 9.91421C6.71072 9.53914 6.5 9.03043 6.5 8.5ZM17.5 15.5C17.5 15.8956 17.3827 16.2822 17.1629 16.6111C16.9432 16.94 16.6308 17.1964 16.2654 17.3478C15.8999 17.4991 15.4978 17.5387 15.1098 17.4616C14.7219 17.3844 14.3655 17.1939 14.0858 16.9142C13.8061 16.6345 13.6156 16.2781 13.5384 15.8902C13.4613 15.5022 13.5009 15.1001 13.6522 14.7346C13.8036 14.3692 14.06 14.0568 14.3889 13.8371C14.7178 13.6173 15.1044 13.5 15.5 13.5C16.0304 13.5 16.5391 13.7107 16.9142 14.0858C17.2893 14.4609 17.5 14.9696 17.5 15.5Z" fill="currentColor"></path></svg>