<svg xmlns="http://www.w3.org/2000/svg" xmlns:xlink="http://www.w3.org/1999/xlink" version="1.1" x="0px" y="0px" viewBox="0 0 32 32" style="enable-background:new 0 0 32 32;" xml:space="preserve"><path d="M25.5,3H6.5C5.7,3,5.1,3.6,5.1,4.4v23.1c0,0.8,0.6,1.4,1.4,1.4h12.6c0.2,0,0.4,0,0.6-0.1c0.2-0.1,0.3-0.2,0.5-0.3l6.3-6.3  c0,0,0,0,0,0c0.1-0.1,0.2-0.3,0.3-0.4c0,0,0-0.1,0-0.1c0-0.1,0.1-0.3,0.1-0.4c0,0,0-0.1,0-0.1V4.4C26.9,3.6,26.3,3,25.5,3z M16,15  c2,0,3.5,1.3,3.5,3c0,1.3-1,2.4-2.4,2.8v1.2h-2.4v-1.2c-1.4-0.4-2.4-1.5-2.4-2.8h2.4c0,0.5,0.5,1,1.2,1s1.2-0.4,1.2-1s-0.5-1-1.2-1  c-2,0-3.5-1.3-3.5-3c0-1.3,1-2.4,2.4-2.8v-1.2h2.4v1.2c1.4,0.4,2.4,1.5,2.4,2.8h-2.4c0-0.5-0.5-1-1.2-1s-1.2,0.4-1.2,1  S15.3,15,16,15z"></path></svg>