<svg xmlns="http://www.w3.org/2000/svg" viewBox="0 0 64 64" x="0px" y="0px"><title>Finance 1</title><path d="M4.08,50.71H35.84a16.82,16.82,0,0,0,18.31,0h1.93a2,2,0,0,0,2-2V47.18a16.81,16.81,0,0,0,0-21.36V12.58a2,2,0,0,0-2-2h-52a2,2,0,0,0-2,2V48.71A2,2,0,0,0,4.08,50.71Zm48.1-10.42a5.79,5.79,0,0,1-5.45,5.77v0a2,2,0,0,1-4,0v0a5.78,5.78,0,0,1-5.44-5.77,2,2,0,0,1,4,0A1.78,1.78,0,0,0,42.73,42V38.48a5.78,5.78,0,0,1,0-11.54v0a2,2,0,0,1,4,0v0a5.8,5.8,0,0,1,5.45,5.77,2,2,0,0,1-4,0A1.78,1.78,0,0,0,46.73,31v3.56A5.79,5.79,0,0,1,52.18,40.29ZM6.08,14.58h48v5.09H46.61a15.65,15.65,0,0,0-3.21,0H6.08Zm0,9.09H34S32.64,25,32.59,25c-.33.36-1.06,1.25-1.11,1.32-.32.43-1,1.5-1.05,1.59-.25.42-.48.85-.7,1.3,0,.05-.05.09-.07.14H6.08Zm0,9.71h22.3a17.18,17.18,0,0,0-.3,3.12c0,.42.08,1.49.09,1.61,0,.31.14,1.15.16,1.27.07.4.28,1.29.29,1.33.09.36.39,1.27.43,1.39.1.3.41,1.07.45,1.16.16.38.6,1.23.63,1.29.17.3.65,1.08.71,1.18.18.28.38.56.58.83l.1.15H6.08Z"></path><path d="M41.29,32.71a1.79,1.79,0,0,0,1.44,1.76V31A1.78,1.78,0,0,0,41.29,32.71Z"></path><path d="M46.73,42a1.78,1.78,0,0,0,0-3.5Z"></path></svg>