<svg xmlns="http://www.w3.org/2000/svg" xmlnsXlink="http://www.w3.org/1999/xlink" viewBox="0 0 21 24" version="1.1" x="0px" y="0px"><g stroke="none" strokeWidth="1" fill="none" fillRule="evenodd"><g transform="translate(-524.000000, -100.000000)" fill-rule="nonzero" fill="currentColor"><path d="M528.499822,101 C528.813884,101.41808 529,101.937804 529,102.500939 L529,114.814402 L529,121.569119 L531.506378,119.909099 L533.99865,121.866492 L536.563618,119.889501 L539.029628,121.863933 L541.561323,119.908535 L544,121.558136 L544,103.501387 C544,102.119148 542.883975,101 541.50746,101 L528.499822,101 Z M526.5,100 L541.50746,100 C543.436886,100 545,101.567488 545,103.501387 L545,123.441864 L541.600149,121.142094 L539.018509,123.136067 L536.551866,121.161128 L533.992882,123.133508 L531.456573,121.14153 L528,123.430881 L528,114.814402 L528,102.500939 C528,101.672093 527.32828,101 526.5,101 C525.666507,101 525,101.666363 525,102.494248 L525,106.039353 L528.727627,106.039353 L528.727627,107.039353 L524,107.039353 L524,102.494248 C524,101.114029 525.114271,100 526.5,100 Z M531,107 L531,106 L542,106 L542,107 L531,107 Z M531,110 L531,109 L542,109 L542,110 L531,110 Z M531,113 L531,112 L542,112 L542,113 L531,113 Z M531,116 L531,115 L538,115 L538,116 L531,116 Z"></path></g></g></svg>