<?xml version="1.0" encoding="utf-8"?>
<svg viewBox="0 0 21 24" xmlns="http://www.w3.org/2000/svg">
  <g stroke="none" strokewidth="1" fill="none" fillRule="evenodd" transform="matrix(2.654544, 0, 0, 2.654544, -0.583236, -17.436699)" style="">
    <g transform="matrix(0.292258, 0, 0, 0.292258, -152.895065, -21.917973)" fill-rule="nonzero" fill="currentColor" style="">
      <path d="M 528.5 101 C 528.814 101.418 529 101.938 529 102.501 L 529 114.814 L 529 121.569 L 531.506 119.909 L 533.999 121.866 L 534.573 121.409 L 534.821 101.852 L 543.426 102.32 C 543.426 100.938 542.884 101 541.507 101 L 528.5 101 Z M 526.5 100 L 541.507 100 C 543.437 100 544.325 100.487 544.629 102.32 L 534.809 102.42 L 534.561 122.679 L 533.993 123.134 L 531.457 121.142 L 528 123.431 L 528 114.814 L 528 102.501 C 528 101.672 527.328 101 526.5 101 C 525.667 101 525 101.666 525 102.494 L 525 106.039 L 528.728 106.039 L 528.728 107.039 L 524 107.039 L 524 102.494 C 524 101.114 525.114 100 526.5 100 Z M 531 110 L 531 109 L 534.526 109 L 534.526 110 L 531 110 Z M 531 113 L 531 112 L 534.526 112 L 534.483 113 L 531 113 Z M 531 116 L 531 115 L 534.544 115 L 534.544 116 L 531 116 Z" style="paint-order: fill;"/>
    </g>
    <g transform="matrix(0.292258, 0, 0, 0.292258, -151.170471, -21.422335)" fillRule="nonzero" fill="currentColor" style="">
      <path d="M528.499822,101 C528.813884,101.41808 529,101.937804 529,102.500939 L529,114.814402 L529,121.569119 L531.506378,119.909099 L533.99865,121.866492 L536.563618,119.889501 L539.029628,121.863933 L541.561323,119.908535 L544,121.558136 L544,103.501387 C544,102.119148 542.883975,101 541.50746,101 L528.499822,101 Z M526.5,100 L541.50746,100 C543.436886,100 545,101.567488 545,103.501387 L545,123.441864 L541.600149,121.142094 L539.018509,123.136067 L536.551866,121.161128 L533.992882,123.133508 L531.456573,121.14153 L528,123.430881 L528,114.814402 L528,102.500939 C528,101.672093 527.32828,101 526.5,101 C525.666507,101 525,101.666363 525,102.494248 L525,106.039353 L528.727627,106.039353 L528.727627,107.039353 L524,107.039353 L524,102.494248 C524,101.114029 525.114271,100 526.5,100 Z M531,107 L531,106 L542,106 L542,107 L531,107 Z M531,110 L531,109 L542,109 L542,110 L531,110 Z M531,113 L531,112 L542,112 L542,113 L531,113 Z M531,116 L531,115 L538,115 L538,116 L531,116 Z"/>
    </g>
  </g>
</svg>