<svg xmlns="http://www.w3.org/2000/svg" xmlns:xlink="http://www.w3.org/1999/xlink" version="1.1" x="0px" y="0px" viewBox="0 0 100 100" enable-background="new 0 0 100 100" xml:space="preserve"><path fill="currentColor" d="M50,5C25.2,5,5,25.2,5,50s20.2,45,45,45s45-20.2,45-45S74.8,5,50,5z M50,86c-19.9,0-36-16.1-36-36  s16.1-36,36-36s36,16.1,36,36S69.9,86,50,86z"></path><polygon fill="currentColor" points="65.9,27.7 50,43.6 34.1,27.7 27.7,34.1 43.6,50 27.7,65.9 34.1,72.3 50,56.4 65.9,72.3 72.3,65.9   56.4,50 72.3,34.1 "></polygon></svg>