<svg xmlns="http://www.w3.org/2000/svg" data-name="Layer 1" viewBox="0 0 100 100" x="0px" y="0px"><title>76 all</title><path d="M5.5,53.92H42.58a4,4,0,0,0,4-4V46.45a18.19,18.19,0,0,0-15.94-18,13.45,13.45,0,1,0-13.2,0,18.19,18.19,0,0,0-15.94,18v3.47A4,4,0,0,0,5.5,53.92ZM24,11.29a5.45,5.45,0,1,1-5.45,5.45A5.45,5.45,0,0,1,24,11.29Zm-4.37,25h8.74a10.18,10.18,0,0,1,10.16,9.64H9.51A10.18,10.18,0,0,1,19.67,36.28Z"></path><path d="M82.56,28.44a13.45,13.45,0,1,0-13.2,0,18.19,18.19,0,0,0-15.94,18v3.47a4,4,0,0,0,4,4H94.5a4,4,0,0,0,4-4V46.45A18.19,18.19,0,0,0,82.56,28.44ZM76,11.29a5.45,5.45,0,1,1-5.45,5.45A5.45,5.45,0,0,1,76,11.29ZM61.43,45.92a10.18,10.18,0,0,1,10.16-9.64h8.74a10.18,10.18,0,0,1,10.16,9.64Z"></path><polygon points="61.33 82.21 82.42 82.21 73.98 91.26 79.83 96.72 97.1 78.21 79.83 59.71 73.98 65.17 82.42 74.21 61.33 74.21 61.33 82.21"></polygon><polygon points="38.67 74.21 17.58 74.21 26.02 65.17 20.17 59.71 2.9 78.21 20.17 96.71 26.02 91.26 17.58 82.21 38.67 82.21 38.67 74.21"></polygon><rect x="44.93" y="74.21" width="10.15" height="8"></rect></svg>