<svg xmlns="http://www.w3.org/2000/svg" xmlnsXlink="http://www.w3.org/1999/xlink" version="1.1" x="0px" y="0px" viewBox="0 0 100 100" enable-background="new 0 0 100 100" xmlSpace="preserve"><path fill="currentColor" d="M51.711,11.789C30.641,11.789,13.5,28.93,13.5,50c0,21.069,17.141,38.211,38.211,38.211  c21.068,0,38.21-17.143,38.21-38.211C89.921,28.93,72.779,11.789,51.711,11.789z M62.834,78.025C60.748,78.695,57,79.369,56,74.445  v-8.592c0-2.486-2.016-4.5-4.5-4.5c-2.485,0-4.5,2.014-4.5,4.5v8.588c0,5.105-4.835,4.199-6.835,3.514  c-7.307-3-13.132-8.781-16.258-16.023l0.133,0.534c0,0-3.307-7.466,2.705-7.466h9.83c2.485,0,4.5-2.016,4.5-4.5  c0-2.485-2.015-4.5-4.5-4.5h-8c-8,0-4.153-8.365-4.153-8.365l-0.238,0.118c3.594-7.954,10.479-14.179,18.982-16.657  C44.881,21.1,47,21.73,47,24.425v10.428c0,2.485,2.015,4.5,4.5,4.5c2.484,0,4.5-2.015,4.5-4.5v-6.837  c0-0.31,0.139-0.821,0.139-1.589c0-4.943,3.097-5.362,5.423-4.961c8.341,2.904,15.032,9.767,18.245,17.959  C80.42,41.774,80.578,46,75.031,46h-7.457c-2.486,0-4.5,2.015-4.5,4.5c0,2.484,2.014,4.5,4.5,4.5h9.287  c3.657,0,3.803,2.963,3.396,5.057C77.429,68.42,70.977,74.746,62.834,78.025z"></path></svg>